<svg width="24" height="24" viewBox="0 0 24 24" fill="none" xmlns="http://www.w3.org/2000/svg">
<path d="M11.25 11.25C11.4489 11.25 11.6397 11.329 11.7803 11.4697C11.921 11.6103 12 11.8011 12 12V15.75C12 15.9489 12.079 16.1397 12.2197 16.2803C12.3603 16.421 12.5511 16.5 12.75 16.5M21 12C21 16.9706 16.9706 21 12 21C7.02944 21 3 16.9706 3 12C3 7.02944 7.02944 3 12 3C16.9706 3 21 7.02944 21 12ZM12.75 7.875C12.75 8.49632 12.2463 9 11.625 9C11.0037 9 10.5 8.49632 10.5 7.875C10.5 7.25368 11.0037 6.75 11.625 6.75C12.2463 6.75 12.75 7.25368 12.75 7.875Z" stroke="black" stroke-linecap="round" stroke-linejoin="round"/>
</svg>
